<?xml version="1.0" encoding="utf-8"?>
<!-- Generator: Adobe Illustrator 16.0.0, SVG Export Plug-In . SVG Version: 6.00 Build 0)  -->
<!DOCTYPE svg PUBLIC "-//W3C//DTD SVG 1.1//EN" "http://www.w3.org/Graphics/SVG/1.1/DTD/svg11.dtd">
<svg version="1.1" id="Layer_1" xmlns="http://www.w3.org/2000/svg" xmlns:xlink="http://www.w3.org/1999/xlink" x="0px" y="0px"
	 width="2560px" height="861.167px" viewBox="0 0 2560 861.167" enable-background="new 0 0 2560 861.167" xml:space="preserve">
<g>
	<defs>
		<rect id="SVGID_1_" x="0.001" width="2560" height="861.167"/>
	</defs>
	<clipPath id="SVGID_2_">
		<use xlink:href="#SVGID_1_"  overflow="visible"/>
	</clipPath>
	<g clip-path="url(#SVGID_2_)">
		<path fill="#F9BA2E" d="M578.645-1227.896L168.888,438.615c-60.362,245.488,167.677,464.24,410.419,393.773l1648.097-478.416
			c242.79-70.458,318.233-377.304,135.823-552.303L1124.859-1386.431C942.448-1561.447,638.988-1473.353,578.645-1227.896z"/>
		<g>
			<path fill="#0F4D28" d="M337.479,456.315l85.563,293.501l-41.926,12.221l-61.104-209.633l-41.949,12.222l-12.213-41.918
				l41.924-12.229l-12.221-41.926L337.479,456.315z"/>
			<path fill="#0F4D28" d="M475.508,461.578l41.917-12.222l12.212,41.926l-41.908,12.214L475.508,461.578z M566.318,617.065
				l12.221,41.925l167.733-48.893l12.213,41.935l-209.643,61.112l-24.458-83.859L566.318,617.065z M630.987,370.752l12.23,41.934
				l-125.792,36.671l-12.221-41.925L630.987,370.752z M608.242,604.846l-41.924,12.22l-12.23-41.917l41.943-12.238L608.242,604.846z
				 M679.88,538.461l-83.85,24.449L583.8,520.994l83.868-24.459L679.88,538.461z M709.583,484.313l-41.916,12.222l-24.45-83.85
				l41.917-12.229L709.583,484.313z"/>
			<path fill="#0F4D28" d="M842.335,627.58l-41.924,12.23l-12.221-41.934l41.934-12.236L842.335,627.58z"/>
			<path fill="#0F4D28" d="M1038.908,365.555l24.45,83.867l-53.296,129.267l-41.926,12.222l-114.419-80.366l-24.443-83.875
				l53.291-129.26l41.941-12.222L1038.908,365.555z M1000.054,388.259l-85.888-60.482l-39.921,97.171l18.348,62.875l85.75,60.079
				l40.033-96.742L1000.054,388.259z"/>
			<path fill="#0F4D28" d="M1062.509,290.442l41.934-12.222l12.221,41.917l-41.926,12.229L1062.509,290.442z M1153.344,445.913
				l12.211,41.941l167.718-48.899l12.214,41.932l-209.627,61.122l-24.467-83.858L1153.344,445.913z M1218.005,199.624l12.221,41.926
				l-125.783,36.671l-12.221-41.933L1218.005,199.624z M1195.268,433.701l-41.924,12.212l-12.221-41.9l41.916-12.237
				L1195.268,433.701z M1266.897,367.324l-83.858,24.451l-12.213-41.926l83.849-24.441L1266.897,367.324z M1296.596,313.179
				l-41.92,12.229l-24.449-83.858l41.927-12.213L1296.596,313.179z"/>
			<path fill="#0F4D28" d="M1429.362,456.438l-41.934,12.229l-12.221-41.926l41.934-12.229L1429.362,456.438z"/>
			<path fill="#0F4D28" d="M1511.515,114.061l85.557,293.492l-41.926,12.213l-61.112-209.642l-41.934,12.221l-12.229-41.918
				l41.941-12.22l-12.229-41.934L1511.515,114.061z"/>
			<path fill="#0F4D28" d="M1691.445,107.077l24.449,83.866l-41.916,12.221l-24.45-83.85L1691.445,107.077z M1817.236,70.413
				l-125.791,36.664l-12.214-41.927l125.785-36.67L1817.236,70.413z M1859.17,58.192l61.115,209.635l-41.934,12.228l-24.441-83.858
				l-125.785,36.672l-12.23-41.925l125.794-36.688l-24.452-83.843L1859.17,58.192z M1752.575,316.719l125.776-36.664l12.235,41.926
				l-125.807,36.672L1752.575,316.719z"/>
			<path fill="#0F4D28" d="M1943.029,33.741l24.45,83.852l-41.934,12.22l-24.449-83.857L1943.029,33.741z M2068.821-2.931
				l-125.792,36.672L1930.8-8.2l125.8-36.663L2068.821-2.931z M2110.747-15.159l61.112,209.643l-41.916,12.213l-24.452-83.851
				l-125.791,36.68l-12.221-41.933l125.791-36.673l-24.449-83.851L2110.747-15.159z M2004.159,243.376l125.784-36.68l12.213,41.925
				l-125.783,36.68L2004.159,243.376z"/>
			<path fill="#0F4D28" d="M2350.085-130.436l24.458,83.858l-41.934,12.229l-12.222-41.934l-167.707,48.902l-12.23-41.934
				L2350.085-130.436z M2231.285,86.174l41.916-12.221l36.681,125.783l-41.935,12.229L2231.285,86.174z M2260.997,32.02
				l41.909-12.212l12.229,41.924l-41.934,12.222L2260.997,32.02z M2290.685-22.134l41.925-12.214l12.237,41.918l-41.94,12.237
				L2290.685-22.134z"/>
		</g>
		<g>
			<path fill="#F1F2F2" stroke="#0F4D28" stroke-width="4" stroke-miterlimit="10" d="M1427.632-312.805
				c-128.28,329.08-421.014,522.281-653.847,431.537c-232.815-90.77-317.571-431.117-189.29-760.209
				c128.281-329.073,421.023-522.283,653.846-431.521C1471.175-982.237,1555.913-641.88,1427.632-312.805z"/>
			<path fill="#F2B0CF" stroke="#0F4D28" stroke-width="4" stroke-miterlimit="10" d="M1350.313-767.559
				c0,127.618-103.444,231.069-231.064,231.069c-127.609,0-231.061-103.451-231.061-231.069
				c0-127.619,103.452-231.07,231.061-231.07C1246.87-998.629,1350.313-895.178,1350.313-767.559z"/>
			<g>
				<path fill="#FFFFFF" d="M1122.63-854.732c0,32.185-26.1,58.276-58.286,58.276s-58.276-26.091-58.276-58.276
					s26.091-58.284,58.276-58.284S1122.63-886.917,1122.63-854.732z"/>
				<path d="M1100.643-877.558c0,20.053-16.245,36.308-36.299,36.308c-20.045,0-36.299-16.254-36.299-36.308
					c0-20.045,16.254-36.291,36.299-36.291C1084.398-913.849,1100.643-897.603,1100.643-877.558z"/>
			</g>
			<g>
				<path fill="#FFFFFF" d="M1291.601-767.14c0,32.186-26.092,58.285-58.279,58.285c-32.193,0-58.284-26.099-58.284-58.285
					c0-32.185,26.091-58.276,58.284-58.276C1265.509-825.416,1291.601-799.325,1291.601-767.14z"/>
				<path d="M1269.613-789.957c0,20.045-16.238,36.299-36.292,36.299c-20.052,0-36.307-16.254-36.307-36.299
					c0-20.045,16.254-36.3,36.307-36.3C1253.375-826.256,1269.613-810.002,1269.613-789.957z"/>
			</g>
			<path fill="#F9BA2E" stroke="#0F4D28" stroke-width="2" stroke-miterlimit="10" d="M1130.308-708.855
				c0,36.43-29.542,65.956-65.964,65.956c-36.43,0-65.964-29.526-65.964-65.956c0-36.437,29.534-65.972,65.964-65.972
				C1100.766-774.827,1130.308-745.292,1130.308-708.855z"/>
			<path fill="#E2E43B" stroke="#0F4D28" stroke-width="2" stroke-miterlimit="10" d="M1107.167-708.855
				c0,23.643-19.171,42.814-42.822,42.814c-23.642,0-42.815-19.172-42.815-42.814c0-23.649,19.173-42.83,42.815-42.83
				C1087.995-751.685,1107.167-732.504,1107.167-708.855z"/>
			<g>
				<path d="M1050.716-910.124c0,0,0.064-0.368,0.178-1.011c0.049-0.323,0.143-0.712,0.196-1.16c0.038-0.446,0.08-0.95,0.126-1.499
					c0.062-0.541,0.074-1.14,0.077-1.777c-0.002-0.636,0.051-1.299,0.034-1.991c-0.019-0.691-0.037-1.406-0.057-2.132
					c-0.002-0.724-0.093-1.462-0.135-2.197c-0.067-0.735-0.096-1.47-0.212-2.19c-0.102-0.72-0.188-1.428-0.241-2.115
					c-0.028-0.689-0.107-1.351-0.111-1.986c-0.025-0.633-0.031-1.235-0.02-1.793c-0.009-1.112,0-2.048,0.057-2.713
					c0.046-0.664,0.107-1.051,0.107-1.051l0.197-0.033c0,0,0.668,1.398,1.228,3.603c0.127,0.552,0.247,1.154,0.356,1.793
					c0.115,0.639,0.229,1.314,0.264,2.021c0.068,1.413,0.037,2.923-0.024,4.43c-0.032,0.754-0.017,1.504-0.088,2.246
					c-0.055,0.739-0.109,1.467-0.162,2.171c-0.058,0.703-0.163,1.382-0.25,2.022c-0.086,0.64-0.177,1.245-0.314,1.805
					c-0.121,0.555-0.231,1.063-0.329,1.515c-0.111,0.443-0.255,0.812-0.354,1.123c-0.208,0.619-0.327,0.973-0.327,0.973
					L1050.716-910.124z"/>
			</g>
			<g>
				<path d="M1033.336-904.936c0,0-0.331-0.176-0.911-0.483c-0.299-0.136-0.619-0.385-1.003-0.646
					c-0.378-0.267-0.822-0.564-1.283-0.904c-0.886-0.701-1.97-1.475-3.026-2.415c-1.085-0.91-2.226-1.902-3.334-2.931
					c-1.128-1.006-2.257-2.025-3.244-3.048c-0.491-0.512-0.923-1.052-1.307-1.584c-0.394-0.522-0.753-1.027-1.07-1.502
					c-0.333-0.461-0.572-0.944-0.8-1.353c-0.22-0.416-0.403-0.781-0.545-1.088c-0.287-0.61-0.419-0.975-0.419-0.975l0.164-0.115
					c0,0,0.323,0.231,0.832,0.665c0.526,0.422,1.176,1.085,2.001,1.846c0.416,0.378,0.851,0.798,1.297,1.253
					c0.455,0.447,0.899,0.948,1.386,1.448c0.468,0.515,0.929,1.068,1.388,1.642c0.451,0.581,0.962,1.123,1.454,1.685
					c0.988,1.12,2.01,2.207,2.988,3.209c0.961,1.023,1.911,1.914,2.696,2.72c0.407,0.374,0.779,0.716,1.11,1.02
					c0.338,0.298,0.614,0.585,0.892,0.769c0.531,0.393,0.834,0.617,0.834,0.617L1033.336-904.936z"/>
			</g>
			<g>
				<path d="M1282.421-801.836c0,0,0.215-0.306,0.59-0.84c0.191-0.265,0.403-0.6,0.693-0.952c0.305-0.347,0.648-0.738,1.023-1.164
					c0.369-0.442,0.803-0.876,1.267-1.325c0.464-0.451,0.948-0.939,1.479-1.403c0.536-0.46,1.089-0.936,1.651-1.42
					c0.554-0.498,1.167-0.931,1.755-1.405c1.177-0.944,2.374-1.866,3.552-2.65c0.589-0.392,1.201-0.7,1.783-0.988
					c0.579-0.292,1.135-0.552,1.654-0.777c2.107-0.859,3.63-1.151,3.63-1.151l0.09,0.179c0,0-0.275,0.279-0.783,0.71
					c-0.502,0.44-1.249,1.003-2.15,1.656c-0.443,0.34-0.932,0.693-1.456,1.049c-0.513,0.375-1.093,0.704-1.664,1.09
					c-0.584,0.366-1.205,0.717-1.846,1.062c-0.648,0.333-1.257,0.747-1.889,1.129c-0.616,0.403-1.264,0.769-1.848,1.196
					c-0.596,0.416-1.182,0.825-1.749,1.221c-0.568,0.397-1.07,0.833-1.583,1.21c-0.512,0.38-0.986,0.747-1.385,1.118
					c-0.415,0.363-0.795,0.696-1.133,0.992c-0.328,0.31-0.586,0.616-0.817,0.846c-0.45,0.473-0.708,0.744-0.708,0.744
					L1282.421-801.836z"/>
			</g>
			<g>
				<path d="M1289.708-783.404c0,0,0.36,0.109,0.992,0.3c0.313,0.113,0.708,0.164,1.149,0.258c0.44,0.085,0.938,0.181,1.479,0.285
					c1.115,0.152,2.396,0.384,3.79,0.549c1.388,0.19,2.869,0.366,4.356,0.495c0.744,0.061,1.483,0.15,2.219,0.167
					c0.733,0.029,1.452,0.07,2.145,0.142c0.691,0.093,1.357,0.154,1.988,0.254c0.631,0.088,1.228,0.189,1.778,0.299
					c1.102,0.212,2.021,0.342,2.673,0.515c0.651,0.152,1.029,0.275,1.029,0.275l0.004,0.2c0,0-0.372,0.111-1.033,0.242
					c-0.33,0.068-0.733,0.137-1.198,0.207c-0.464,0.06-0.995,0.154-1.563,0.159c-0.57,0.027-1.189,0.038-1.844,0.032
					c-0.656,0.007-1.346-0.021-2.05-0.111c-1.409-0.186-2.898-0.489-4.378-0.798c-1.486-0.28-2.961-0.607-4.338-0.938
					c-1.384-0.291-2.65-0.701-3.74-0.996c-0.548-0.167-1.051-0.347-1.49-0.492c-0.438-0.152-0.829-0.261-1.117-0.419
					c-0.593-0.281-0.932-0.442-0.932-0.442L1289.708-783.404z"/>
			</g>
			<g>
				<g>
					<path fill="#0F4D28" d="M1031.357-740.62c-4.169,1.526-10.301,0.552-14.619,0.205c-0.518-0.042-1.106,0.409-1.205,0.918
						c-3.287,16.891,10.502,29.476,22.882,38.478c9.854,7.165,19.976,13.371,31.399,17.579c10.629,3.917,22.858,8.054,34.35,7.226
						c10.299-0.741,10.519-8.846,6.337-16.516c-0.771-1.416-2.93-0.154-2.158,1.262c1.771,3.25,4.636,8.885,0.449,11.506
						c-3.456,2.163-8.76,1.405-12.562,0.951c-11.061-1.322-22.169-5.123-32.391-9.445c-11.487-4.857-22.68-12.847-32.041-20.945
						c-6.154-5.324-11.689-11.808-13.781-19.822c-0.548-2.102-0.618-4.261-0.534-6.416c0.13-3.331,2.213-2.059,4.903-1.991
						c2.968,0.075,6.777,0.465,9.635-0.581C1033.523-738.759,1032.875-741.175,1031.357-740.62L1031.357-740.62z"/>
				</g>
			</g>
			<g>
				<path fill="#0F4D28" d="M680.365-834.098c0,0,0.474,1.785,1.391,5.245c0.895,3.466,2.317,8.581,4.222,15.234
					c3.923,13.259,9.795,32.769,20.326,56.34c5.297,11.759,11.791,24.5,19.853,37.785c3.988,6.667,8.475,13.399,13.254,20.29
					c2.414,3.432,4.961,6.85,7.521,10.371c2.603,3.494,5.25,7.046,7.94,10.657c10.708,14.482,22.102,29.893,34.114,46.14
					c11.984,16.26,24.696,33.267,38.237,50.794c13.499,17.558,27.955,35.539,43.449,53.681c7.701,9.113,15.815,18.126,24.072,27.259
					c4.223,4.478,8.478,8.989,12.764,13.534c4.354,4.476,8.861,8.863,13.318,13.362c35.858,35.862,80.342,66.237,128.088,94.14
					c23.957,13.848,48.941,26.883,74.927,38.568c6.534,2.835,13.088,5.678,19.66,8.528c3.321,1.342,6.647,2.685,9.978,4.029
					l4.999,2.019c1.664,0.683,3.335,1.349,5.029,1.959c13.473,5.087,27.098,10.004,41.015,14.192
					c3.479,1.047,6.96,2.095,10.446,3.145c1.736,0.55,3.502,0.991,5.262,1.461l5.285,1.399c3.528,0.917,7.043,1.902,10.59,2.768
					c3.562,0.806,7.125,1.613,10.692,2.42c7.117,1.705,14.314,3.031,21.549,4.244c7.234,1.219,14.502,2.321,21.776,3.448
					c14.548,2.234,29.161,4.464,43.581,7.9c7.201,1.737,14.357,3.779,21.304,6.497c3.467,1.37,6.876,2.923,10.155,4.747
					c3.277,1.823,6.434,3.927,9.267,6.457c2.833,2.519,5.347,5.469,7.224,8.832c1.853,3.375,2.983,7.147,3.371,10.967
					c0.396,3.826,0.066,7.68-0.723,11.385c-0.79,3.713-2.022,7.293-3.479,10.752c-2.926,6.929-6.834,13.328-11.045,19.45
					c-2.112,3.062-4.346,6.028-6.622,8.956l-3.485,4.33c-1.249,1.473-2.437,2.793-3.66,4.193l-3.646,4.143l-1.823,2.07
					c-0.603,0.693-1.208,1.385-1.876,2.032l-7.809,7.915l-1.951,1.978l-2.048,1.862l-4.097,3.721l-4.095,3.718
					c-0.67,0.634-1.381,1.22-2.099,1.796l-2.139,1.748c-2.857,2.323-5.69,4.673-8.562,6.969c-2.96,2.181-5.917,4.36-8.872,6.537
					c-2.911,2.242-6.022,4.188-9.058,6.236c-3.064,2.008-6.051,4.133-9.222,5.955c-3.132,1.887-6.26,3.771-9.385,5.654
					c-3.176,1.793-6.396,3.498-9.588,5.248c-1.605,0.857-3.183,1.766-4.808,2.58l-4.889,2.406l-4.884,2.403
					c-1.626,0.802-3.245,1.618-4.911,2.328c-3.308,1.473-6.612,2.943-9.912,4.412c-1.64,0.759-3.319,1.42-4.993,2.09l-5.016,2.016
					l-5.009,2.013c-1.669,0.67-3.374,1.239-5.057,1.863c-3.378,1.219-6.75,2.436-10.118,3.65
					c-13.58,4.539-27.234,8.578-40.956,11.944c-3.422,0.875-6.876,1.585-10.303,2.383l-5.143,1.164
					c-1.782,0.38-3.451,0.678-5.179,1.02c-6.855,1.327-13.685,2.649-20.485,3.967c-3.4,0.658-6.793,1.315-10.18,1.971
					c-1.693,0.328-3.384,0.655-5.073,0.982c-1.703,0.274-3.404,0.548-5.103,0.821c-6.799,1.081-13.567,2.157-20.304,3.229
					c-3.369,0.533-6.729,1.065-10.082,1.596s-6.693,1.09-10.046,1.468c-6.695,0.844-13.356,1.683-19.982,2.518
					c-6.627,0.817-13.21,1.703-19.771,2.45c-6.574,0.621-13.111,1.238-19.607,1.852c-6.498,0.604-12.956,1.205-19.373,1.802
					l-2.404,0.224l-2.406,0.151c-1.603,0.1-3.203,0.198-4.801,0.298c-3.195,0.198-6.379,0.396-9.553,0.592
					c-50.757,3.315-98.935,3.903-143.28,1.635c-44.325-1.811-84.938-5.312-120.604-10.828
					c-35.646-5.498-66.419-12.931-90.592-22.423c-12.081-4.723-22.493-9.937-30.983-15.392c-8.518-5.417-15.01-11.166-19.63-16.37
					c-4.603-5.24-7.312-9.903-8.898-13.117c-0.384-0.812-0.759-1.509-1.015-2.139c-0.256-0.63-0.471-1.156-0.643-1.579
					c-0.344-0.846-0.519-1.275-0.519-1.275l0.374-0.141c0,0,0.181,0.423,0.537,1.256c0.178,0.416,0.399,0.935,0.664,1.554
					c0.264,0.62,0.648,1.305,1.042,2.103c1.626,3.157,4.385,7.726,9.025,12.831c4.657,5.069,11.144,10.681,19.664,15.931
					c8.488,5.29,18.889,10.323,30.955,14.85c24.143,9.08,54.82,16.254,90.402,21.352c17.795,2.568,36.83,4.607,56.937,6.272
					c10.054,0.83,20.379,1.536,30.958,2.153c10.576,0.586,21.414,1.226,32.476,1.475c5.531,0.168,11.12,0.338,16.765,0.51
					c2.822,0.086,5.658,0.173,8.508,0.259c1.425,0.044,2.853,0.087,4.285,0.131l2.15,0.064l2.156-0.007
					c11.514-0.035,23.244-0.072,35.176-0.109c23.852-0.584,48.521-1.239,73.814-3.154c3.164-0.205,6.338-0.411,9.522-0.617
					c1.592-0.104,3.188-0.207,4.785-0.311l2.398-0.157l2.396-0.229c6.396-0.613,12.833-1.23,19.309-1.852
					c6.477-0.611,12.993-1.227,19.547-1.846c6.54-0.742,13.103-1.623,19.71-2.436c6.605-0.829,13.246-1.662,19.92-2.5
					c3.345-0.375,6.667-0.932,10.003-1.458s6.681-1.054,10.033-1.583c6.706-1.053,13.443-2.11,20.211-3.173
					c1.692-0.267,3.386-0.532,5.082-0.8c1.69-0.32,3.382-0.643,5.077-0.965c3.388-0.644,6.784-1.289,10.187-1.936
					c6.805-1.293,13.639-2.592,20.499-3.896c1.697-0.33,3.471-0.644,5.111-0.988l5.106-1.138c3.402-0.78,6.833-1.472,10.23-2.328
					c13.625-3.293,27.179-7.253,40.66-11.706c3.342-1.193,6.689-2.389,10.042-3.585c1.671-0.613,3.364-1.171,5.02-1.83l4.971-1.978
					l4.978-1.98c1.662-0.658,3.329-1.307,4.955-2.053c3.274-1.444,6.552-2.89,9.835-4.337c1.653-0.698,3.258-1.501,4.871-2.289
					l4.844-2.364l4.851-2.366c1.612-0.801,3.176-1.694,4.768-2.537c3.166-1.721,6.358-3.402,9.512-5.158
					c3.104-1.845,6.21-3.691,9.321-5.54c3.15-1.785,6.114-3.869,9.158-5.837c3.015-2.01,6.107-3.915,8.997-6.115
					c2.936-2.135,5.874-4.272,8.814-6.412c2.833-2.278,5.668-4.559,8.506-6.84l2.126-1.716c0.714-0.565,1.421-1.141,2.087-1.763
					l4.068-3.651l4.072-3.654l2.036-1.829l1.929-1.931l7.723-7.729c0.656-0.628,1.267-1.316,1.875-2.007l1.835-2.06l3.671-4.12
					c1.205-1.363,2.494-2.769,3.637-4.094l3.481-4.243c2.271-2.868,4.499-5.771,6.601-8.76c4.191-5.976,8.069-12.208,10.952-18.869
					c2.862-6.615,4.876-13.782,4.206-20.885c-0.328-3.526-1.328-6.977-3.002-10.1c-1.701-3.111-4.012-5.888-6.673-8.298
					c-2.661-2.417-5.675-4.466-8.836-6.257c-3.164-1.793-6.48-3.337-9.872-4.709c-6.796-2.723-13.861-4.801-20.992-6.581
					c-14.287-3.523-28.851-5.875-43.376-8.212c-7.269-1.147-14.539-2.271-21.785-3.514c-7.247-1.236-14.481-2.592-21.606-4.321
					c-3.574-0.819-7.146-1.639-10.714-2.458c-3.554-0.877-7.074-1.875-10.608-2.805l-5.292-1.419
					c-1.763-0.476-3.532-0.924-5.27-1.479c-3.489-1.062-6.976-2.122-10.459-3.182c-55.694-17.174-107.991-41.422-156.313-68.608
					c-24.142-13.659-47.261-28.224-69.142-43.561c-2.722-1.925-5.436-3.845-8.143-5.759l-2.029-1.435
					c-0.702-0.506-1.33-1.011-1.998-1.516c-1.317-1.009-2.632-2.018-3.946-3.024c-5.238-4.046-10.559-7.936-15.459-12.268
					c-2.493-2.116-4.979-4.225-7.457-6.327c-1.227-1.064-2.502-2.072-3.684-3.178c-1.19-1.097-2.379-2.193-3.565-3.287
					c-2.373-2.188-4.738-4.368-7.095-6.542c-1.179-1.087-2.355-2.172-3.53-3.255c-1.173-1.085-2.278-2.235-3.417-3.347
					c-18.315-17.711-34.921-36.121-50.409-54.365c-15.477-18.26-29.899-36.338-43.354-53.976c-27-35.212-50.626-68.3-71.847-97.387
					c-2.657-3.635-5.271-7.212-7.842-10.729c-2.532-3.549-5.071-7.024-7.465-10.496c-4.746-6.978-9.198-13.793-13.15-20.539
					c-7.991-13.438-14.417-26.312-19.542-38.215c-5.144-11.899-9.064-22.793-12.222-32.339c-3.181-9.543-5.478-17.785-7.339-24.461
					c-1.782-6.701-3.108-11.846-3.938-15.327c-0.852-3.476-1.292-5.271-1.292-5.271L680.365-834.098z"/>
			</g>
			<g>
				<path fill="#0F4D28" d="M1050.471-245.944c0.001,6.639-0.185,13.277-0.386,19.91l-0.66,19.897
					c-0.445,13.265-0.832,26.529-1.034,39.797c-0.394,26.528-0.129,53.09,1.871,79.537c0.989,13.22,2.474,26.404,4.656,39.469
					c1.1,6.53,2.417,13.021,3.987,19.447c1.576,6.423,3.419,12.78,5.66,18.99c2.244,6.205,4.885,12.27,8.124,17.994
					c3.213,5.731,7.152,11.06,11.864,15.573l0.876,0.854l0.936,0.784l1.871,1.57l1.987,1.414l0.994,0.706l1.048,0.62l2.097,1.236
					l2.197,1.046l1.099,0.52l1.141,0.421l2.282,0.837c6.207,1.9,12.817,2.313,19.288,1.538l-0.842,0.736l0.54-2.67
					c0.161-0.895,0.409-1.767,0.49-2.683l0.343-2.722c0.104-0.908,0.257-1.81,0.296-2.729l0.188-2.744
					c0.052-0.916,0.151-1.828,0.164-2.747l0.114-5.508l-0.136-5.507c-0.016-0.918-0.119-1.83-0.174-2.745l-0.199-2.743
					c-0.043-0.918-0.198-1.818-0.307-2.727l-0.353-2.718c-0.084-0.915-0.334-1.785-0.499-2.679l-0.55-2.664l0.794,0.779
					l-2.722-0.485c-0.909-0.151-1.81-0.351-2.725-0.465l-2.765-0.225c-0.922-0.063-1.841-0.176-2.766-0.201l-2.78,0.011
					c-0.926,0.01-1.853-0.008-2.779,0.024l-5.545,0.457l-5.495,0.878c-0.907,0.186-1.803,0.426-2.706,0.635l-2.702,0.649
					c-0.893,0.24-1.76,0.566-2.641,0.845l-2.634,0.868c-0.864,0.321-1.694,0.724-2.543,1.081l-2.533,1.103l0.596-0.708l-0.531,2.317
					c-0.17,0.774-0.388,1.532-0.468,2.339l-0.333,2.388c-0.111,0.796-0.236,1.589-0.276,2.398l-0.184,2.416
					c-0.048,0.807-0.153,1.608-0.154,2.419l-0.118,4.854l0.12,4.854c0,0.811,0.108,1.61,0.157,2.417l0.187,2.414
					c0.041,0.809,0.169,1.6,0.284,2.394l0.343,2.382c0.082,0.806,0.31,1.557,0.486,2.327l0.553,2.301l-0.916-0.839
					c6.845,1.423,13.87,2.101,20.745,1.287c0.429-0.049,0.865-0.055,1.288-0.141l1.269-0.252l2.536-0.503
					c0.852-0.144,1.648-0.487,2.475-0.72c0.816-0.269,1.648-0.496,2.452-0.795c3.154-1.342,6.261-2.858,8.973-4.983
					c0.677-0.528,1.408-0.987,2.042-1.569l1.904-1.743c0.314-0.294,0.643-0.573,0.946-0.878l0.867-0.962l1.736-1.921
					c0.557-0.659,1.054-1.372,1.584-2.056c0.506-0.702,1.083-1.351,1.532-2.097l1.407-2.192l0.702-1.097l0.628-1.146
					c3.42-6.069,5.97-12.64,8.024-19.355c4.077-13.471,6.278-27.492,8.192-41.52l2.732-21.12c0.464-3.526,0.963-7.053,1.505-10.578
					l1.613-10.523c2.19-14.034,4.22-28.073,6.27-42.121l6.143-42.16c2.125-14.047,4.259-28.095,6.616-42.112
					c1.108-7.02,2.386-14.013,3.642-21.01l1.88-10.496l2.062-10.467c1.408-6.962,2.696-13.978,4.267-20.906l4.758-20.779
					c3.154-13.818,6.125-27.66,7.792-41.634c1.652-13.939,2.06-28.109-0.62-41.77c-1.334-6.812-3.455-13.457-6.467-19.676
					c-3.002-6.222-6.9-11.999-11.525-17.144c-0.584-0.637-1.114-1.325-1.744-1.922l-1.848-1.826
					c-0.621-0.604-1.221-1.229-1.857-1.817l-1.965-1.707l-1.964-1.708l-0.199-0.173l-0.265-0.202l-0.529-0.404l-1.059-0.807
					c-1.416-1.045-2.81-2.235-4.25-3.122c-5.63-3.899-11.863-7.214-18.395-9.356c-6.538-2.16-13.441-3.167-20.278-2.746
					l-1.283,0.061c-0.426,0.035-0.848,0.11-1.272,0.163l-2.544,0.346c-0.852,0.098-1.674,0.354-2.513,0.523
					c-0.831,0.205-1.68,0.341-2.496,0.6l-2.448,0.781c-0.407,0.133-0.819,0.251-1.222,0.396l-1.187,0.494l-2.377,0.984
					c-0.778,0.361-1.53,0.778-2.296,1.164c-3.077,1.532-5.902,3.524-8.65,5.596l-1.961,1.686c-0.65,0.566-1.327,1.104-1.919,1.734
					c-1.212,1.23-2.491,2.396-3.586,3.74c-4.583,5.183-8.338,11.106-11.24,17.427c-5.79,12.678-8.154,26.831-7.651,40.809
					l-0.714-1.149c5.252,2.981,10.133,6.332,15.173,9.406c1.256,0.773,2.52,1.527,3.79,2.267c1.272,0.736,2.556,1.445,3.848,2.138
					c1.298,0.677,2.604,1.332,3.928,1.945c1.326,0.604,2.664,1.174,4.021,1.683c1.358,0.506,2.733,0.95,4.123,1.318
					c0.692,0.197,1.397,0.316,2.096,0.479c0.701,0.142,1.409,0.217,2.113,0.331c0.706,0.068,1.413,0.106,2.12,0.155
					c0.702-0.024,1.411,0.001,2.11-0.06c1.394-0.133,2.785-0.352,4.102-0.808l0.991-0.333c0.324-0.127,0.632-0.292,0.95-0.436
					c0.313-0.153,0.636-0.286,0.942-0.453l0.891-0.554c0.613-0.34,1.156-0.789,1.706-1.227c0.573-0.409,1.062-0.924,1.568-1.419
					c0.526-0.474,0.978-1.025,1.429-1.577l0.686-0.821l0.612-0.883c0.856-1.151,1.532-2.434,2.256-3.683l0.237-0.408l0.376-0.081
					l2.729-0.59c0.456-0.093,0.906-0.208,1.367-0.282l1.391-0.185c1.844-0.298,3.734-0.359,5.619-0.345
					c0.945,0.091,1.895,0.111,2.834,0.264l1.404,0.296c0.467,0.104,0.94,0.176,1.386,0.368c0.896,0.35,1.833,0.6,2.655,1.122
					l1.265,0.7l1.149,0.875c0.806,0.541,1.406,1.302,2.097,1.961c0.607,0.729,1.205,1.477,1.729,2.26
					c0.484,0.807,1.028,1.585,1.421,2.434l0.636,1.249l0.558,1.278c0.749,1.702,1.353,3.447,1.941,5.189
					c0.582,1.744,1.122,3.495,1.665,5.24c0.542,1.744,1.1,3.479,1.687,5.199l0.931,2.562l1.028,2.517l1.154,2.455l1.308,2.372
					l1.49,2.256c0.563,0.701,1.108,1.42,1.685,2.11c0.63,0.642,1.239,1.307,1.883,1.935c0.692,0.574,1.373,1.165,2.075,1.729
					l2.252,1.498l2.407,1.243c1.663,0.7,3.349,1.387,5.121,1.791c1.737,0.547,3.558,0.718,5.347,1.05l-0.044,0.397
					c-1.812-0.297-3.656-0.432-5.43-0.948c-1.806-0.374-3.539-1.035-5.252-1.717l-2.492-1.223l-2.348-1.491
					c-0.734-0.564-1.449-1.157-2.175-1.737c-0.678-0.632-1.32-1.304-1.98-1.958c-0.606-0.701-1.181-1.431-1.772-2.146l-1.571-2.296
					l-1.381-2.409l-1.221-2.488l-1.089-2.544l-0.986-2.578c-0.623-1.73-1.213-3.467-1.785-5.206
					c-0.573-1.737-1.14-3.473-1.744-5.188c-0.61-1.711-1.232-3.417-1.985-5.05l-0.559-1.227l-0.629-1.184
					c-0.39-0.81-0.914-1.524-1.38-2.278c-0.221-0.388-0.533-0.699-0.796-1.053c-0.282-0.335-0.53-0.704-0.838-1.013
					c-0.644-0.584-1.197-1.279-1.932-1.745l-1.043-0.771l-1.146-0.605c-0.736-0.461-1.594-0.663-2.402-0.969
					c-0.399-0.17-0.837-0.227-1.265-0.312l-1.284-0.25c-0.864-0.126-1.753-0.127-2.627-0.199c-1.766,0.019-3.542,0.101-5.307,0.417
					l-1.325,0.192c-0.44,0.076-0.876,0.194-1.315,0.288l-2.627,0.6l0.613-0.489c-0.745,1.327-1.441,2.681-2.342,3.927l-0.645,0.951
					l-0.729,0.896c-0.481,0.602-0.964,1.202-1.534,1.733c-0.547,0.549-1.079,1.115-1.709,1.582
					c-0.604,0.493-1.203,0.995-1.885,1.389l-0.993,0.631c-0.341,0.192-0.703,0.35-1.054,0.525c-0.355,0.167-0.703,0.354-1.066,0.502
					l-1.112,0.392c-1.483,0.529-3.04,0.797-4.592,0.96c-0.777,0.075-1.555,0.061-2.334,0.093c-0.772-0.041-1.548-0.075-2.318-0.142
					c-0.761-0.11-1.532-0.187-2.286-0.33c-0.748-0.163-1.509-0.286-2.246-0.484c-1.482-0.374-2.937-0.826-4.365-1.338
					c-1.427-0.517-2.825-1.092-4.205-1.702c-1.376-0.617-2.728-1.276-4.068-1.955c-1.332-0.693-2.652-1.402-3.957-2.137
					c-1.301-0.738-2.594-1.488-3.873-2.254c-5.124-3.046-10.079-6.354-15.183-9.17l-0.677-0.373l-0.038-0.776
					c-0.697-14.352,1.556-29.009,7.518-42.241c2.976-6.6,6.854-12.823,11.64-18.312c1.146-1.418,2.482-2.663,3.755-3.968
					c0.622-0.667,1.332-1.244,2.017-1.848l2.065-1.797c2.897-2.222,5.889-4.355,9.162-6.017c0.815-0.418,1.616-0.866,2.445-1.257
					l2.535-1.072l1.268-0.535c0.43-0.159,0.871-0.29,1.306-0.437l2.62-0.854c0.874-0.282,1.783-0.439,2.673-0.664
					c0.898-0.188,1.782-0.463,2.694-0.578l2.729-0.392c0.456-0.059,0.909-0.141,1.366-0.182l1.375-0.077
					c7.337-0.503,14.735,0.532,21.687,2.778c6.982,2.252,13.446,5.623,19.505,9.759c1.585,0.979,2.904,2.099,4.351,3.15l1.064,0.8
					l0.532,0.4l0.266,0.2l0.179,0.146l0.129,0.11l2.067,1.771l2.066,1.772c0.671,0.61,1.302,1.267,1.955,1.898l1.942,1.914
					c0.66,0.626,1.223,1.347,1.838,2.016c4.874,5.402,9.007,11.499,12.187,18.056c3.19,6.554,5.43,13.542,6.837,20.653
					c2.811,14.266,2.432,28.856,0.722,43.056c-1.739,14.232-4.783,28.195-7.983,42.044l-4.808,20.728
					c-1.584,6.917-2.905,13.862-4.341,20.812l-2.104,10.424l-1.924,10.46c-1.285,6.973-2.593,13.942-3.732,20.944
					c-2.418,13.978-4.615,27.997-6.805,42.02l-6.34,42.117c-2.123,14.043-4.206,28.104-6.447,42.121l-1.653,10.523
					c-0.55,3.49-1.059,6.992-1.534,10.504l-2.812,21.115c-1.977,14.077-4.24,28.216-8.447,41.939
					c-2.122,6.843-4.757,13.582-8.335,19.877l-0.657,1.187l-0.736,1.144l-1.478,2.283c-0.473,0.773-1.081,1.46-1.615,2.194
					c-0.56,0.717-1.085,1.46-1.675,2.153l-1.841,2.024l-0.921,1.011c-0.322,0.322-0.672,0.619-1.006,0.931l-2.031,1.844
					c-0.678,0.613-1.458,1.107-2.183,1.666c-2.902,2.249-6.231,3.873-9.606,5.284c-0.858,0.316-1.743,0.559-2.614,0.84
					c-0.88,0.246-1.734,0.603-2.636,0.754l-2.688,0.524l-1.345,0.261c-0.448,0.087-0.905,0.094-1.357,0.145
					c-7.252,0.829-14.539,0.083-21.572-1.406l-0.753-0.159l-0.162-0.68l-0.589-2.473c-0.187-0.824-0.425-1.648-0.507-2.475
					l-0.348-2.478c-0.117-0.826-0.246-1.652-0.285-2.479l-0.184-2.479c-0.047-0.827-0.153-1.653-0.152-2.48l-0.103-4.961
					l0.138-4.958c0.006-0.827,0.115-1.652,0.167-2.478l0.198-2.478c0.045-0.825,0.175-1.649,0.294-2.474l0.354-2.473
					c0.086-0.825,0.319-1.646,0.503-2.468l0.58-2.464l0.118-0.501l0.479-0.207l2.647-1.143c0.886-0.37,1.757-0.785,2.656-1.116
					l2.732-0.891c0.914-0.285,1.815-0.619,2.739-0.863l2.791-0.661c0.931-0.213,1.857-0.455,2.793-0.644l5.661-0.882l5.712-0.45
					c0.954-0.029,1.911-0.009,2.866-0.016l2.867,0.001c0.955,0.029,1.909,0.147,2.863,0.218l2.862,0.244
					c0.95,0.122,1.892,0.331,2.838,0.493l2.834,0.521l0.661,0.121l0.134,0.658l0.565,2.775c0.167,0.926,0.422,1.847,0.506,2.778
					l0.352,2.789c0.107,0.93,0.263,1.857,0.303,2.79l0.193,2.795c0.053,0.932,0.154,1.863,0.167,2.795l0.117,5.595l-0.136,5.594
					c-0.016,0.933-0.121,1.862-0.177,2.794l-0.203,2.793c-0.043,0.933-0.202,1.859-0.312,2.789l-0.362,2.785
					c-0.087,0.931-0.345,1.85-0.518,2.773l-0.577,2.769l-0.137,0.656l-0.705,0.081c-6.7,0.771-13.607,0.314-20.098-1.712
					l-2.386-0.888l-1.191-0.447l-1.148-0.548l-2.291-1.106l-2.184-1.302l-1.09-0.653l-1.032-0.74l-2.061-1.482l-1.934-1.638
					l-0.966-0.819l-0.903-0.887c-4.852-4.694-8.855-10.183-12.1-16.035c-3.271-5.848-5.915-12.007-8.151-18.289
					c-2.233-6.286-4.059-12.702-5.612-19.175c-1.549-6.475-2.839-13.006-3.911-19.569c-2.126-13.129-3.548-26.357-4.474-39.61
					c-1.872-26.511-2.004-53.097-1.479-79.639c0.269-13.273,0.721-26.54,1.232-39.804l0.759-19.893
					c0.234-6.632,0.453-13.261,0.485-19.896L1050.471-245.944z"/>
			</g>
		</g>
	</g>
</g>
</svg>
