<?xml version="1.0" encoding="utf-8"?>
<!-- Generator: Adobe Illustrator 16.0.0, SVG Export Plug-In . SVG Version: 6.00 Build 0)  -->
<!DOCTYPE svg PUBLIC "-//W3C//DTD SVG 1.1//EN" "http://www.w3.org/Graphics/SVG/1.1/DTD/svg11.dtd">
<svg version="1.1" id="Layer_1" xmlns="http://www.w3.org/2000/svg" xmlns:xlink="http://www.w3.org/1999/xlink" x="0px" y="0px"
	 width="2560px" height="2560px" viewBox="0 0 2560 2560" enable-background="new 0 0 2560 2560" xml:space="preserve">
<path fill="#F2B0CF" d="M1318.053,283.688l100.961,267.608c14.338,37.944,62.317,49.698,92.566,22.617l213.083-190.781
	c75.336-67.487,192.229,4.82,165.473,102.369l-75.604,275.838c-10.708,39.151,21.217,76.86,61.582,72.729l284.554-29.139
	c100.62-10.28,152.651,116.902,73.702,180.128l-223.305,178.702c-31.699,25.355-28.037,74.641,7.078,95.021l247.292,143.683
	c87.456,50.824,54.81,184.309-46.224,189.039l-285.729,13.342c-40.521,1.872-66.508,43.882-50.128,81.023l115.614,261.606
	c40.885,92.501-63.995,181.31-148.495,125.763l-238.979-157.162c-33.91-22.293-79.623-3.564-88.185,36.089l-60.229,279.597
	c-21.312,98.894-158.36,109.093-194.065,14.451l-100.975-267.6c-14.318-37.959-62.319-49.706-92.543-22.633l-213.075,190.821
	c-75.361,67.431-192.233-4.86-165.505-102.41l75.607-275.831c10.733-39.157-21.191-76.85-61.561-72.711l-284.535,29.105
	c-100.622,10.305-152.674-116.894-73.707-180.104l223.298-178.711c31.683-25.354,28.017-74.64-7.072-95.037l-247.301-143.659
	c-87.456-50.84-54.811-184.316,46.23-189.055l285.705-13.31c40.541-1.903,66.531-43.914,50.118-81.047L588.088,582.436
	c-40.88-92.527,63.991-181.343,148.515-125.756l238.979,157.13c33.893,22.31,79.618,3.597,88.169-36.073l60.232-279.597
	C1145.276,199.262,1282.337,189.048,1318.053,283.688z"/>
</svg>
