<?xml version="1.0" encoding="utf-8"?>
<!-- Generator: Adobe Illustrator 16.0.0, SVG Export Plug-In . SVG Version: 6.00 Build 0)  -->
<!DOCTYPE svg PUBLIC "-//W3C//DTD SVG 1.1//EN" "http://www.w3.org/Graphics/SVG/1.1/DTD/svg11.dtd">
<svg version="1.1" id="Layer_1" xmlns="http://www.w3.org/2000/svg" xmlns:xlink="http://www.w3.org/1999/xlink" x="0px" y="0px"
	 width="361.928px" height="227.549px" viewBox="0 0 361.928 227.549" enable-background="new 0 0 361.928 227.549"
	 xml:space="preserve">
<g>
	<path fill="#F1AFCE" d="M58.362,0v18.153c-18.148,0-36.301,4.535-36.301,27.227v45.377H3.913V0h18.151v36.299
		C22.061,13.615,35.674,0,58.362,0z"/>
	<path fill="#F1AFCE" d="M161.399,45.38c0,27.229-18.15,45.377-45.374,45.377c-27.227,0-45.377-18.154-45.377-45.377
		C70.642,18.153,88.799,0,116.022,0S161.399,18.151,161.399,45.38z M88.797,45.38c0,18.15,13.612,27.229,27.226,27.229
		c13.61,0,27.227-9.075,27.227-27.229c0-18.154-13.616-27.227-27.227-27.227C102.409,18.151,88.797,27.229,88.797,45.38z"/>
	<g>
		<path fill="#F1AFCE" d="M58.362,97.774v18.159c-18.148,0-36.301,4.543-36.301,27.226v45.38H3.913V97.774h18.151v36.31
			C22.061,111.392,35.674,97.774,58.362,97.774z"/>
		<path fill="#F1AFCE" d="M158.188,97.774v81.684c0,31.764-18.147,45.38-45.374,45.38c-27.229,0-36.301-13.616-36.301-13.616
			v-22.686c0,0,13.615,18.153,36.301,18.153c18.154,0,27.227-9.072,27.227-27.223v-36.299c0,22.683-13.616,36.293-31.767,36.293
			c-18.151,0-31.764-13.607-31.764-36.293V97.774h18.15v36.31c0,18.153,9.072,27.221,22.686,27.221s22.688-9.067,22.688-27.221
			v-36.31H158.188z"/>
		<path fill="#F1AFCE" d="M258.023,97.774v90.762H239.87v-36.302c0,22.681-9.075,36.302-27.229,36.302
			c-22.68,0-40.83-18.156-40.83-45.38c0-27.226,18.15-45.385,40.83-45.385c18.154,0,27.229,13.615,27.229,36.31V97.774H258.023z
			 M239.873,143.162c0-18.153-9.07-27.229-22.681-27.229c-13.612,0-27.229,9.072-27.229,27.229
			c0,18.153,13.616,27.221,27.229,27.221C230.795,170.383,239.873,161.309,239.873,143.162z"/>
		<path fill="#F1AFCE" d="M357.855,134.087v54.446h-18.162v-45.374c0-18.159-9.066-27.231-22.683-27.231
			c-13.607,0-22.686,9.072-22.686,27.231v45.374h-18.153V97.774h18.153v36.31c0-22.694,13.618-36.31,31.77-36.31
			C344.242,97.774,357.855,111.392,357.855,134.087z"/>
	</g>
</g>
</svg>
