<?xml version="1.0" encoding="utf-8"?>
<!-- Generator: Adobe Illustrator 16.0.0, SVG Export Plug-In . SVG Version: 6.00 Build 0)  -->
<!DOCTYPE svg PUBLIC "-//W3C//DTD SVG 1.1//EN" "http://www.w3.org/Graphics/SVG/1.1/DTD/svg11.dtd">
<svg version="1.1" id="Layer_1" xmlns="http://www.w3.org/2000/svg" xmlns:xlink="http://www.w3.org/1999/xlink" x="0px" y="0px"
	 width="126.855px" height="78.097px" viewBox="0 0 126.855 78.097" enable-background="new 0 0 126.855 78.097"
	 xml:space="preserve">
<g>
	<path fill="#0E4D28" d="M22.826,0v6.305c-6.304,0-12.609,1.576-12.609,9.457v15.762H3.913V0h6.305v12.608
		C10.217,4.729,14.945,0,22.826,0z"/>
	<path fill="#0E4D28" d="M58.616,15.762c0,9.458-6.305,15.762-15.761,15.762c-9.457,0-15.761-6.305-15.761-15.762
		C27.092,6.305,33.398,0,42.854,0C52.31,0,58.616,6.304,58.616,15.762z M33.397,15.762c0,6.305,4.729,9.458,9.457,9.458
		s9.457-3.152,9.457-9.458c0-6.305-4.729-9.457-9.457-9.457C38.126,6.304,33.397,9.458,33.397,15.762z"/>
	<g>
		<path fill="#0E4D28" d="M22.826,33.962v6.307c-6.304,0-12.609,1.578-12.609,9.457v15.763H3.913V33.962h6.305v12.612
			C10.217,38.692,14.945,33.962,22.826,33.962z"/>
		<path fill="#0E4D28" d="M57.501,33.962v28.373c0,11.033-6.304,15.762-15.761,15.762c-9.458,0-12.609-4.729-12.609-4.729v-7.88
			c0,0,4.729,6.306,12.609,6.306c6.306,0,9.457-3.152,9.457-9.456V49.729c0,7.879-4.729,12.607-11.034,12.607
			c-6.305,0-11.033-4.727-11.033-12.607V33.962h6.304v12.612c0,6.306,3.152,9.455,7.88,9.455c4.729,0,7.881-3.149,7.881-9.455
			V33.962H57.501z"/>
		<path fill="#0E4D28" d="M92.178,33.962v31.526h-6.305V52.879c0,7.878-3.153,12.609-9.458,12.609
			c-7.878,0-14.183-6.307-14.183-15.763c0-9.457,6.305-15.764,14.183-15.764c6.305,0,9.458,4.729,9.458,12.612V33.962H92.178z
			 M85.874,49.727c0-6.305-3.151-9.458-7.878-9.458c-4.729,0-9.458,3.152-9.458,9.458c0,6.306,4.729,9.455,9.458,9.455
			C82.72,59.182,85.874,56.031,85.874,49.727z"/>
		<path fill="#0E4D28" d="M126.855,46.575v18.912h-6.308V49.726c0-6.307-3.15-9.459-7.879-9.459c-4.727,0-7.88,3.152-7.88,9.459
			v15.761h-6.306V33.962h6.306v12.612c0-7.883,4.73-12.612,11.035-12.612C122.127,33.962,126.855,38.692,126.855,46.575z"/>
	</g>
</g>
</svg>
