<?xml version="1.0" encoding="utf-8"?>
<!-- Generator: Adobe Illustrator 16.0.0, SVG Export Plug-In . SVG Version: 6.00 Build 0)  -->
<!DOCTYPE svg PUBLIC "-//W3C//DTD SVG 1.1//EN" "http://www.w3.org/Graphics/SVG/1.1/DTD/svg11.dtd">
<svg version="1.1" id="Layer_1" xmlns="http://www.w3.org/2000/svg" xmlns:xlink="http://www.w3.org/1999/xlink" x="0px" y="0px"
	 width="2560px" height="2560px" viewBox="0 0 2560 2560" enable-background="new 0 0 2560 2560" xml:space="preserve">
<polygon fill="none" stroke="#13A366" stroke-width="3" stroke-miterlimit="10" points="1267.526,58.482 1326.785,242.064 
	1403.719,65.196 1441.961,254.255 1538.301,87.109 1555.184,279.302 1669.52,123.99 1664.766,316.848 1795.834,175.286 
	1769.529,366.433 1915.607,240.442 1868.068,427.371 2027.311,318.621 1959.104,499.015 2129.582,408.79 2041.619,580.45 
	2221.1,509.782 2114.525,670.571 2300.732,620.442 2176.811,768.251 2367.518,739.349 2227.742,872.28 2420.49,864.983 
	2266.768,981.395 2459.131,995.653 2293.291,1094.227 2482.914,1129.877 2307.082,1209.328 2491.477,1266.006 2307.865,1325.186 
	2484.742,1402.188 2295.662,1440.457 2462.828,1536.735 2270.65,1553.591 2425.906,1668.037 2233.104,1663.222 2374.611,1794.276 
	2183.529,1767.958 2309.467,1914.015 2122.559,1866.518 2231.322,2025.753 2050.84,1957.587 2141.139,2128.072 1969.527,2040.06 
	2040.148,2219.601 1879.4,2112.933 1929.48,2299.21 1781.721,2175.259 1810.553,2365.96 1677.621,2226.226 1684.996,2419.031 
	1568.508,2265.18 1554.262,2457.558 1455.703,2291.772 1419.977,2481.383 1340.632,2305.573 1283.928,2489.959 1224.75,2306.355 
	1147.788,2483.231 1109.479,2294.082 1013.194,2461.213 996.364,2269.069 881.973,2424.431 886.707,2231.55 755.646,2373.079 
	781.957,2181.979 635.873,2307.882 683.417,2120.979 524.175,2229.786 592.383,2049.357 421.912,2139.657 509.937,1967.978 
	330.381,2038.596 437.029,1877.849 250.713,1927.901 374.738,1780.127 183.92,1808.996 323.731,1676.091 130.981,1683.499 
	284.693,1566.971 92.307,1552.69 258.176,1454.158 68.595,1418.447 244.404,1339.08 60.038,1282.402 243.58,1223.229 
	66.787,1146.224 255.838,1107.984 88.625,1011.603 280.804,994.795 125.553,880.451 318.384,885.151 176.849,754.096 
	367.929,780.442 242.047,634.303 428.963,681.861 320.143,522.591 500.613,590.854 410.32,420.375 581.958,508.339 511.345,328.838 
	672.135,435.479 622.048,249.163 769.767,373.162 740.927,182.411 873.872,322.18 866.504,129.418 982.965,283.177 997.286,90.785 
	1095.783,256.584 1131.502,67.024 1210.828,242.813 "/>
</svg>
