<?xml version="1.0" encoding="utf-8"?>
<!-- Generator: Adobe Illustrator 16.0.0, SVG Export Plug-In . SVG Version: 6.00 Build 0)  -->
<!DOCTYPE svg PUBLIC "-//W3C//DTD SVG 1.1//EN" "http://www.w3.org/Graphics/SVG/1.1/DTD/svg11.dtd">
<svg version="1.1" id="Layer_1" xmlns="http://www.w3.org/2000/svg" xmlns:xlink="http://www.w3.org/1999/xlink" x="0px" y="0px"
	 width="2560px" height="2560px" viewBox="0 0 2560 2560" enable-background="new 0 0 2560 2560" xml:space="preserve">
<g>
	<path fill="#EF5432" d="M2220.699,537.893c409.857,519.532,320.928,1272.949-198.58,1682.799
		c-519.542,409.855-1272.955,320.953-1682.816-198.582C-70.554,1502.586,18.362,749.161,537.9,339.311
		C1057.429-70.553,1810.857,18.359,2220.699,537.893z"/>
	<path fill="none" d="M1367.416,685.194c332.771,39.248,570.707,340.846,531.428,673.632
		c-39.256,332.771-340.867,570.713-673.646,531.451c-332.78-39.287-570.707-340.898-531.429-673.67
		C733.032,883.842,1034.645,645.916,1367.416,685.194z"/>
	<text transform="matrix(-0.2431 -0.97 0.97 -0.2431 736.8213 1551.7305)"><tspan x="0" y="0" fill="#E2E43B" font-family="'VG5000-Regular'" font-size="480.708">S</tspan><tspan x="213.236" y="-15.716" fill="#E2E43B" font-family="'VG5000-Regular'" font-size="480.708" rotate="23.976">A</tspan><tspan x="494.764" y="100.598" fill="#E2E43B" font-family="'VG5000-Regular'" font-size="480.708" rotate="52.053">Y</tspan><tspan x="673.782" y="354.294" fill="#E2E43B" font-family="'VG5000-Regular'" font-size="480.708" rotate="69.985"> </tspan><tspan x="715.327" y="420.788" fill="#E2E43B" font-family="'VG5000-Regular'" font-size="480.708" rotate="85.973">H</tspan><tspan x="732.926" y="679.224" fill="#E2E43B" font-family="'VG5000-Regular'" font-size="480.708" rotate="107.282">E</tspan><tspan x="672.237" y="885.816" fill="#E2E43B" font-family="'VG5000-Regular'" font-size="480.708" rotate="127.981">L</tspan><tspan x="543.61" y="1057.793" fill="#E2E43B" font-family="'VG5000-Regular'" font-size="480.708" rotate="148.036">L</tspan><tspan x="371.077" y="1184.272" fill="#E2E43B" font-family="'VG5000-Regular'" font-size="480.708" rotate="171.953">O</tspan><tspan x="62.146" y="1212.906" fill="#E2E43B" font-family="'VG5000-Regular'" font-size="480.708" rotate="-169.953">!</tspan></text>
	<g>
		<path fill="#E2E43B" d="M1208.797,1604.271c9.291,34.139-10.857,69.334-45.003,78.627c-34.136,9.293-69.342-10.859-78.626-44.998
			c-9.292-34.141,10.854-69.336,44.99-78.637C1164.303,1549.979,1199.505,1570.123,1208.797,1604.271z"/>
		<path fill="#E2E43B" d="M1579.313,1503.461c9.294,34.141-10.857,69.35-44.999,78.637c-34.141,9.283-69.342-10.852-78.627-44.992
			c-9.292-34.148,10.85-69.357,44.998-78.635C1534.819,1449.178,1570.02,1469.32,1579.313,1503.461z"/>
		<path fill="none" stroke="#E2E43B" stroke-width="80" stroke-miterlimit="10" d="M1860.002,1445.689
			c76.598,281.533-89.533,571.848-371.066,648.445c-281.533,76.598-571.844-89.533-648.444-371.066"/>
	</g>
</g>
</svg>
