<?xml version="1.0" encoding="utf-8"?>
<!-- Generator: Adobe Illustrator 16.0.0, SVG Export Plug-In . SVG Version: 6.00 Build 0)  -->
<!DOCTYPE svg PUBLIC "-//W3C//DTD SVG 1.1//EN" "http://www.w3.org/Graphics/SVG/1.1/DTD/svg11.dtd">
<svg version="1.1" id="Layer_1" xmlns="http://www.w3.org/2000/svg" xmlns:xlink="http://www.w3.org/1999/xlink" x="0px" y="0px"
	 width="2560px" height="2560px" viewBox="0 0 2560 2560" enable-background="new 0 0 2560 2560" xml:space="preserve">
<g>
	<path fill="#71CAC3" d="M2108.547,410.55c479.81,458.916,496.745,1219.909,37.85,1699.71
		c-458.922,479.819-1219.908,496.771-1699.733,37.856C-33.143,1689.208-50.08,928.21,408.83,448.403
		C867.738-31.412,1628.74-48.358,2108.547,410.55z"/>
	<g>
		<path fill="#F2B0CF" d="M730.562,1513.396c22.645,55.879,13.895,98.465,13.895,98.465l-44.697,18.122
			c0,0,4.225-53.758-13.895-98.464c-18.122-44.688-45.002-46.806-67.35-37.754c-55.875,22.647,29.898,170.035-70.675,210.804
			c-55.876,22.647-107.511-8.451-130.166-64.324c-22.644-55.876-13.891-98.463-13.891-98.463l44.706-18.122
			c0,0-4.236,53.757,13.883,98.464c18.118,44.691,45.006,46.805,67.354,37.753c55.874-22.649-29.901-170.029,70.672-210.798
			C656.276,1426.429,707.914,1457.535,730.562,1513.396z"/>
		<path fill="#F2B0CF" d="M589.651,1210.771l0.081,148.562l96.496,34.195l0.032,48.233l-337.725-120.389l-0.043-72.359
			l337.577-120.788l0.031,48.233L589.651,1210.771z M541.421,1228.172l-159.148,57.005l159.214,56.823L541.421,1228.172z"/>
		<path fill="#F2B0CF" d="M580.191,969.921l159.18,64.383l-18.091,44.711l-159.176-64.384l-203.56,60.753l22.611-55.898
			l147.956-44.208l-75.618-134.645l22.6-55.893L580.191,969.921z"/>
		<path fill="#F2B0CF" d="M866.038,432.407L1054.83,712.26l-39.979,26.969l-80.913-119.934l-119.946,80.911l80.919,119.948
			l-39.977,26.968L666.137,567.255l39.977-26.967l80.909,119.935l119.947-80.912l-80.916-119.932L866.038,432.407z"/>
		<path fill="#F2B0CF" d="M1062.141,415.763l19.873,94.397l94.406-19.867l9.927,47.209l-94.398,19.866l19.865,94.398l141.614-29.796
			l9.932,47.192l-188.812,39.735l-69.541-330.4l188.801-39.747l9.935,47.207L1062.141,415.763z"/>
		<path fill="#F2B0CF" d="M1482.825,647.679l-6.749,47.75l-191.011-26.953l47.169-334.279l47.744,6.731l-40.423,286.534
			L1482.825,647.679z"/>
		<path fill="#F2B0CF" d="M1689.418,750.577l-22.748,42.531l-170.091-91.016l159.273-297.646l42.511,22.758l-136.517,255.112
			L1689.418,750.577z"/>
		<path fill="#F2B0CF" d="M1992.162,906.502c-74.024,61.861-168.204,61.986-230.055-12.033
			c-61.86-74.019-45.002-166.675,29.023-228.537c74.01-61.856,168.197-61.985,230.051,12.036
			C2083.043,752.002,2066.182,844.642,1992.162,906.502z M1822.053,702.944c-55.516,46.392-61.6,114.338-22.936,160.603
			c38.665,46.263,106.601,52.336,162.116,5.945c55.514-46.39,61.596-114.32,22.939-160.586
			C1945.516,662.639,1877.573,656.551,1822.053,702.944z"/>
		<path fill="#F2B0CF" d="M1869.086,1080.568l-17.953-44.757l44.758-17.96l17.955,44.773L1869.086,1080.568z M1958.602,1044.664
			l-17.95-44.759l223.825-89.747l17.938,44.762L1958.602,1044.664z"/>
	</g>
	<path fill="#F2B0CF" d="M1252.178,1611.46c14,32.622-1.098,70.409-33.728,84.412c-32.616,13.999-70.417-1.095-84.418-33.717
		c-14.001-32.621,1.099-70.407,33.725-84.42C1200.375,1563.745,1238.175,1578.831,1252.178,1611.46z"/>
	<path fill="#F2B0CF" d="M1606.223,1459.527c14.002,32.621-1.094,70.417-33.724,84.42c-32.618,13.991-70.419-1.095-84.419-33.716
		c-13.987-32.636,1.109-70.429,33.727-84.421C1554.435,1411.808,1592.223,1426.906,1606.223,1459.527z"/>
	<path fill="none" stroke="#F2B0CF" stroke-width="80" stroke-miterlimit="10" d="M1877.022,1362.902
		c115.442,269.019-9.039,580.676-278.057,696.121c-269.02,115.451-580.672-9.043-696.127-278.057"/>
</g>
</svg>
